<?xml version="1.0" encoding="utf-8"?>
<!-- Generator: Adobe Illustrator 18.1.1, SVG Export Plug-In . SVG Version: 6.00 Build 0)  -->
<svg version="1.1" id="Layer_1" xmlns="http://www.w3.org/2000/svg" xmlns:xlink="http://www.w3.org/1999/xlink" x="0px" y="0px"
	 viewBox="0 0 30 32" enable-background="new 0 0 30 32" xml:space="preserve">
<path fill-rule="evenodd" clip-rule="evenodd" d="M28,32H2c-1.1,0-2-0.9-2-2V10V8l26-8c0.5-0.1,0.9-0.2,1.3-0.1
	C27.8,0.1,28,0.4,28,1v7c1.1,0,2,0.9,2,2v20C30,31.1,29.1,32,28,32z M26,2L6.5,8H26V2z M28,21c0-0.6,0-0.3,0-1h-4c0,0.4,0,0.4,0,1
	c0,0.6,0,0.4,0,1h4C28,21.3,28,21.6,28,21z M2,10l25,0c0.6,0,1,0.4,1,1v7h-5c-0.6,0-1,0.4-1,1v4c0,0.6,0.4,1,1,1h5v5
	c0,0.6-0.4,1-1,1H3c-0.6,0-1-0.4-1-1C2,29,2,10.7,2,10z"/>
</svg>
