<?xml version="1.0" encoding="utf-8"?>
<!-- Generator: Adobe Illustrator 18.1.1, SVG Export Plug-In . SVG Version: 6.00 Build 0)  -->
<svg version="1.1" id="Layer_1" xmlns="http://www.w3.org/2000/svg" xmlns:xlink="http://www.w3.org/1999/xlink" x="0px" y="0px"
	 viewBox="0 0 28 32" enable-background="new 0 0 28 32" xml:space="preserve">
<path fill-rule="evenodd" clip-rule="evenodd" d="M24,32H4c-2.2,0-4-1.8-4-4V8c0-2.2,1.8-4,4-4h3V2h2.7c0.9-1.2,2.5-2,4.3-2
	c1.8,0,3.4,0.8,4.3,2H21v2h3c2.2,0,4,1.8,4,4v20C28,30.2,26.2,32,24,32z M19,4h-2.2c0-1.1-1.2-2-2.8-2c-1.5,0-2.8,0.9-2.8,2H9v4h10
	V4z M26,8c0-1.1-0.9-2-2-2h-3v4H7V6H4C2.9,6,2,6.9,2,8v20c0,1.1,0.9,2,2,2h20c1.1,0,2-0.9,2-2V8z M21,26H7c-0.6,0-1-0.4-1-1
	c0-0.6,0.4-1,1-1h14c0.6,0,1,0.4,1,1C22,25.6,21.6,26,21,26z M21,21H7c-0.6,0-1-0.4-1-1c0-0.6,0.4-1,1-1h14c0.6,0,1,0.4,1,1
	C22,20.6,21.6,21,21,21z M21,16H7c-0.6,0-1-0.4-1-1c0-0.6,0.4-1,1-1h14c0.6,0,1,0.4,1,1C22,15.6,21.6,16,21,16z"/>
</svg>
