<?xml version="1.0" encoding="utf-8"?>
<!-- Generator: Adobe Illustrator 18.1.1, SVG Export Plug-In . SVG Version: 6.00 Build 0)  -->
<svg version="1.1" id="Layer_1" xmlns="http://www.w3.org/2000/svg" xmlns:xlink="http://www.w3.org/1999/xlink" x="0px" y="0px"
	 viewBox="0 0 32 32" enable-background="new 0 0 32 32" xml:space="preserve">
<path fill-rule="evenodd" clip-rule="evenodd" d="M28,32H4c-2.2,0-4-1.8-4-4V4c0-2.2,1.8-4,4-4h24c2.2,0,4,1.8,4,4v24
	C32,30.2,30.2,32,28,32z M28,30c1.1,0,2-0.9,2-2v-8l-6-6l-8.5,8.5l7.4,7.5H28z M2,28c0,1.1,0.9,2,2,2h16L9.9,19.9L2,27.1V28z M30,4
	c0-1.1-0.9-2-2-2H4C2.9,2,2,2.9,2,4v20.3l8-7.3l4.1,4.1L24,11l6,6.1V4z M8,12c-2.2,0-4-1.8-4-4c0-2.2,1.8-4,4-4c2.2,0,4,1.8,4,4
	C12,10.2,10.2,12,8,12z M8,6C6.9,6,6,6.9,6,8s0.9,2,2,2c1.1,0,2-0.9,2-2S9.1,6,8,6z"/>
</svg>
